<?xml version="1.0" encoding="UTF-8"?><svg id="Layer_2" xmlns="http://www.w3.org/2000/svg" viewBox="0 0 80 40"><g id="Layer_1-2"><g><path d="M80,40H0V0H80V40Z" style="fill:#aa132a;"/><path d="M65.61,19.91c-.63,.08-1.1,.1-1.43,.1s-.8-.05-1.45-.12c.1,.95,.12,1.3,.15,2.08v2.53l.02,5.95c0,2.38,.07,2.88,.65,3.83,.35,.58,.85,1.1,1.48,1.53,1.17,.83,2.45,1.13,4.78,1.13,2.18,0,3.53-.33,4.73-1.17,1.75-1.23,2.13-2.33,2.13-6.38l-.02-3.93c0-.33,.02-1.17,.05-2.55,0-1.05,.03-1.8,.05-2.2,.03-.18,.05-.42,.08-.78-.58,.05-1,.1-1.28,.1s-.7-.05-1.25-.1c.1,.88,.15,1.23,.17,1.98,.08,1,.1,2.2,.1,3.53v3.9c0,2.75-.08,3.35-.6,4.13-.2,.28-.55,.58-1,.85-.85,.53-1.78,.73-3.03,.73-1.78,0-3.43-.65-4.05-1.58-.5-.75-.52-1.05-.55-3.65v-5.1c0-.28,.03-.75,.05-1.38,0-.62,.03-1.02,.03-1.17,.05-.88,.07-1.25,.2-2.23m-6.8,2.43c-.05-.53-.07-.92-.07-1.2,0-.35,.02-.63,.12-1.25-.98,.12-1.33,.12-1.9,.12h-2.55l-2.95-.02-1.7-.05c.1,1.98,.13,2.78,.18,4.03v6.85c0,1.8-.02,2.98-.05,3.55-.05,.5-.1,1.3-.2,2.33,.58-.05,1-.07,1.3-.07,.35,0,.88,.03,1.58,.1-.18-2.18-.18-2.55-.18-5.56v-2.13h2.63c1.05,0,1.7,.05,3.28,.25-.05-.53-.08-.93-.08-1.2,0-.33,.03-.62,.13-1.28-1.35,.2-1.83,.22-2.98,.22h-2.95v-3.98l.03-1h2.67c.68,0,1.75,.05,2.65,.15,.22,.02,.58,.05,1.05,.12m-14.15,.45c.13-.55,.17-.72,.35-1.25,.15-.43,.2-.55,.45-1-.75-.28-1.05-.37-1.62-.5-.8-.18-1.58-.28-2.4-.28-1.78,0-2.98,.42-3.93,1.38-.85,.85-1.35,2.05-1.35,3.33,0,1.48,.55,2.55,1.73,3.38,.6,.43,1.08,.68,2.35,1.25,1.3,.6,1.68,.78,2.25,1.18,.88,.6,1.3,1.3,1.3,2.13,0,1.7-1.38,2.85-3.38,2.85-.88,0-1.78-.2-2.6-.62-.58-.28-.92-.52-1.72-1.2-.2,1.18-.3,1.53-.75,2.5,1.17,.57,1.65,.72,2.88,.9,.62,.1,1.15,.15,1.68,.15,2.25,0,3.93-.73,5-2.13,.73-.98,1.08-1.98,1.08-3.05,0-.8-.2-1.6-.58-2.18-.48-.75-1.2-1.3-2.88-2.13-2.35-1.18-2.7-1.35-3.25-1.78-.62-.5-.98-1.18-.98-1.93,0-1.45,1.03-2.4,2.58-2.4,.42,0,1.07,.12,1.6,.27,.82,.27,1.25,.48,2.2,1.13" style="fill:#fff;"/></g></g></svg>